<svg width="36" height="36" viewBox="0 0 36 36" fill="none" xmlns="http://www.w3.org/2000/svg">
<path d="M20.2607 0.140625C21.109 0.24692 21.9388 0.412705 22.7461 0.632812C22.6709 0.894944 22.8202 1.16968 23.082 1.24902C24.1885 1.58425 25.249 2.02584 26.251 2.5625C26.4922 2.69162 26.7906 2.60275 26.9229 2.36426C27.6588 2.78515 28.3622 3.25634 29.0283 3.77344C28.8582 3.98664 28.8902 4.29789 29.1016 4.47168C29.9873 5.19943 30.8006 6.01268 31.5283 6.89844C31.7021 7.10978 32.0124 7.14076 32.2256 6.9707C32.7427 7.63677 33.2138 8.34024 33.6348 9.07617C33.3965 9.20851 33.3084 9.50792 33.4375 9.74902C33.9742 10.751 34.4157 11.8115 34.751 12.918C34.8303 13.1796 35.1043 13.3277 35.3662 13.2529C35.5864 14.0603 35.752 14.89 35.8584 15.7383C35.5876 15.7688 35.3906 16.011 35.417 16.2832C35.4719 16.8478 35.5 17.4207 35.5 18C35.5 18.5793 35.4719 19.1522 35.417 19.7168C35.3906 19.9889 35.5877 20.2302 35.8584 20.2607C35.7521 21.109 35.5863 21.9387 35.3662 22.7461C35.1375 22.6809 34.8995 22.7863 34.79 22.9883L34.751 23.082C34.4577 24.0502 34.0825 24.9828 33.6338 25.8721L33.4375 26.251C33.3085 26.4919 33.3968 26.7904 33.6348 26.9229C33.2138 27.6588 32.7427 28.3622 32.2256 29.0283C32.0124 28.8587 31.7019 28.8904 31.5283 29.1016C30.8006 29.9873 29.9873 30.8006 29.1016 31.5283C28.8904 31.7019 28.8587 32.0124 29.0283 32.2256C28.3622 32.7427 27.6588 33.2138 26.9229 33.6348C26.807 33.4267 26.5642 33.3325 26.3438 33.3984L26.251 33.4375C25.3744 33.907 24.4528 34.3036 23.4951 34.6201L23.082 34.751C22.8205 34.8302 22.6715 35.1044 22.7461 35.3662C21.9387 35.5863 21.109 35.7521 20.2607 35.8584C20.2302 35.5877 19.9889 35.3906 19.7168 35.417C19.1522 35.4719 18.5793 35.5 18 35.5C17.4207 35.5 16.8478 35.4719 16.2832 35.417C16.011 35.3906 15.7688 35.5876 15.7383 35.8584C14.89 35.752 14.0603 35.5864 13.2529 35.3662C13.3277 35.1043 13.1796 34.8303 12.918 34.751L12.5049 34.6201C11.5472 34.3036 10.6256 33.907 9.74902 33.4375L9.65625 33.3984C9.43568 33.3324 9.1919 33.4264 9.07617 33.6348C8.34024 33.2138 7.63677 32.7427 6.9707 32.2256C7.14076 32.0124 7.10978 31.7021 6.89844 31.5283L6.56934 31.252C5.81032 30.5966 5.10851 29.8767 4.47168 29.1016L4.39941 29.0303C4.22056 28.8855 3.95968 28.8797 3.77344 29.0283C3.25634 28.3622 2.78515 27.6588 2.36426 26.9229C2.60275 26.7906 2.69162 26.4922 2.5625 26.251L2.36621 25.8721C1.91753 24.9828 1.54234 24.0502 1.24902 23.082L1.20996 22.9883C1.10037 22.786 0.861795 22.6804 0.632812 22.7461C0.412705 21.9388 0.24692 21.109 0.140625 20.2607C0.411856 20.2306 0.609399 19.9892 0.583008 19.7168L0.546875 19.292C0.515763 18.8655 0.5 18.4346 0.5 18C0.5 17.4207 0.528058 16.8478 0.583008 16.2832C0.609405 16.0107 0.411912 15.7683 0.140625 15.7383C0.246964 14.89 0.412665 14.0602 0.632812 13.2529C0.895022 13.3283 1.16965 13.1799 1.24902 12.918C1.58425 11.8115 2.02584 10.751 2.5625 9.74902C2.6917 9.50766 2.60306 9.2083 2.36426 9.07617C2.78517 8.34026 3.25632 7.63676 3.77344 6.9707C3.95971 7.11975 4.22041 7.11459 4.39941 6.96973L4.47168 6.89844C5.10851 6.12335 5.81032 5.40335 6.56934 4.74805L6.89844 4.47168C7.10998 4.29776 7.1413 3.98665 6.9707 3.77344C7.63676 3.25632 8.34026 2.78517 9.07617 2.36426C9.2083 2.60306 9.50766 2.6917 9.74902 2.5625C10.751 2.02584 11.8115 1.58425 12.918 1.24902C13.1799 1.16965 13.3283 0.895022 13.2529 0.632812C14.0602 0.412665 14.89 0.246964 15.7383 0.140625C15.7683 0.411911 16.0107 0.609403 16.2832 0.583008C16.8478 0.528059 17.4207 0.5 18 0.5C18.5793 0.5 19.1522 0.528058 19.7168 0.583008C19.9892 0.609402 20.2306 0.411857 20.2607 0.140625ZM19.8438 27.2676C19.2478 27.3854 18.6314 27.4473 18 27.4473C17.3684 27.4473 16.7514 27.3855 16.1553 27.2676L16.0547 27.2578C15.8221 27.2593 15.6153 27.4241 15.5684 27.6611C15.5148 27.932 15.691 28.1945 15.9619 28.248C16.6215 28.3785 17.303 28.4473 18 28.4473C18.697 28.4473 19.3785 28.3785 20.0381 28.248C20.3089 28.1945 20.4852 27.932 20.4316 27.6611C20.3848 27.4242 20.1777 27.2595 19.9453 27.2578L19.8438 27.2676ZM10.0791 23.1709C9.91371 23.0074 9.65101 22.9771 9.4502 23.1113C9.22082 23.2649 9.15909 23.5752 9.3125 23.8047C10.075 24.9437 11.0554 25.9249 12.1943 26.6875C12.4238 26.8411 12.735 26.7793 12.8887 26.5498C13.042 26.3204 12.9803 26.01 12.751 25.8564L12.3711 25.5889C11.5016 24.9428 10.7471 24.1505 10.1436 23.249L10.0791 23.1709ZM26.5498 23.1113C26.349 22.977 26.0864 23.0075 25.9209 23.1709L25.8564 23.249C25.2527 24.1508 24.4976 24.9428 23.6279 25.5889L23.249 25.8564C23.0196 26.01 22.9578 26.3204 23.1113 26.5498C23.2458 26.7506 23.5005 26.8234 23.7158 26.7354L23.8047 26.6875C24.8015 26.0202 25.6774 25.1859 26.3916 24.2246L26.6875 23.8047C26.8408 23.5753 26.7791 23.2649 26.5498 23.1113ZM8.33887 15.5684C8.10204 15.5215 7.87137 15.6501 7.78125 15.8643L7.75098 15.9619C7.62052 16.6215 7.55273 17.303 7.55273 18C7.55273 18.697 7.62052 19.3785 7.75098 20.0381C7.80457 20.309 8.06797 20.4852 8.33887 20.4316C8.60959 20.378 8.78575 20.1155 8.73242 19.8447L8.6543 19.3936C8.60952 19.0905 8.57975 18.7826 8.56445 18.4707L8.55273 18C8.55273 17.5263 8.58713 17.061 8.6543 16.6064L8.73242 16.1553C8.78574 15.8846 8.60958 15.6219 8.33887 15.5684ZM27.6611 15.5684C27.3904 15.6219 27.2142 15.8845 27.2676 16.1553C27.3855 16.7514 27.4473 17.3684 27.4473 18C27.4473 18.4737 27.4129 18.939 27.3457 19.3936L27.2676 19.8447C27.2142 20.1155 27.3904 20.3781 27.6611 20.4316C27.9319 20.4851 28.1945 20.3089 28.248 20.0381C28.3459 19.5433 28.4092 19.0363 28.4346 18.5195L28.4473 18C28.4473 17.303 28.3785 16.6215 28.248 15.9619L28.2188 15.8643C28.1287 15.6501 27.8979 15.5216 27.6611 15.5684ZM12.8887 9.4502C12.735 9.22073 12.4238 9.15888 12.1943 9.3125C11.1977 9.97977 10.3225 10.8142 9.6084 11.7754L9.3125 12.1953C9.15909 12.4248 9.22081 12.7351 9.4502 12.8887C9.65102 13.0229 9.91371 12.9926 10.0791 12.8291L10.1436 12.751C10.8334 11.7206 11.7206 10.8334 12.751 10.1436C12.9803 9.98999 13.0421 9.67963 12.8887 9.4502ZM23.8047 9.3125C23.5752 9.15906 23.2649 9.2208 23.1113 9.4502C22.9578 9.67965 23.0196 9.98996 23.249 10.1436C24.2793 10.8334 25.1666 11.7206 25.8564 12.751C26.01 12.9804 26.3203 13.0422 26.5498 12.8887C26.7791 12.7351 26.8408 12.4247 26.6875 12.1953L26.3916 11.7754C25.6774 10.8141 24.8015 9.97984 23.8047 9.3125ZM18 7.55273C17.4771 7.55273 16.9627 7.59074 16.46 7.66504L15.9619 7.75195C15.691 7.80554 15.5148 8.068 15.5684 8.33887C15.6219 8.60968 15.8845 8.78587 16.1553 8.73242C16.7514 8.6145 17.3684 8.55273 18 8.55273C18.6314 8.55274 19.2478 8.61456 19.8438 8.73242C20.1146 8.78601 20.378 8.60976 20.4316 8.33887C20.4851 8.06802 20.3089 7.80553 20.0381 7.75195L19.5391 7.66504C19.0366 7.59081 18.5226 7.55274 18 7.55273Z" stroke="white" stroke-linecap="round" stroke-linejoin="round" stroke-dasharray="4 4"/>
</svg>
